<svg xmlns="http://www.w3.org/2000/svg" width="16" height="16" viewBox="0 0 16 16" fill="currentColor" class="size-4 shrink-0"><path d="M5.09965 13.8972C4.61377 13.8972 4.1738 13.79 3.77974 13.5758C3.38951 13.3654 3.0777 13.0727 2.84432 12.6978C2.61477 12.3228 2.5 11.8886 2.5 11.3951C2.5 10.9015 2.61477 10.4673 2.84432 10.0924C3.0777 9.71743 3.38951 9.42475 3.77974 9.21433C4.1738 9.00009 4.61377 8.89296 5.09965 8.89296H11.0737C11.5596 8.89296 11.9976 9.00009 12.3879 9.21433C12.7819 9.42475 13.0937 9.71743 13.3233 10.0924C13.5567 10.4673 13.6733 10.9015 13.6733 11.3951C13.6733 11.8886 13.5567 12.3228 13.3233 12.6978C13.0937 13.0727 12.7819 13.3654 12.3879 13.5758C11.9976 13.79 11.5596 13.8972 11.0737 13.8972H5.09965ZM11.2229 12.7666C11.4716 12.7666 11.6992 12.7035 11.9058 12.5772C12.1124 12.4548 12.2769 12.2884 12.3993 12.078C12.5256 11.8675 12.5906 11.6342 12.5945 11.3778C12.5945 11.1292 12.5332 10.9034 12.4108 10.7007C12.2884 10.4941 12.122 10.3296 11.9115 10.2071C11.7049 10.0847 11.4754 10.0235 11.2229 10.0235C10.9704 10.0235 10.7408 10.0847 10.5342 10.2071C10.3276 10.3296 10.1631 10.4941 10.0407 10.7007C9.91829 10.9073 9.85707 11.1368 9.85707 11.3893C9.85707 11.6418 9.91829 11.8714 10.0407 12.078C10.1631 12.2846 10.3276 12.4491 10.5342 12.5715C10.7408 12.6978 10.9704 12.7628 11.2229 12.7666ZM5.33494 8.01494C4.79932 8.01494 4.31727 7.90016 3.88878 7.67061C3.46028 7.44106 3.1217 7.11969 2.87302 6.7065C2.62434 6.28949 2.5 5.80743 2.5 5.26034C2.5 4.70942 2.62434 4.22736 2.87302 3.81417C3.1217 3.39716 3.46028 3.07387 3.88878 2.84432C4.31727 2.61477 4.79932 2.5 5.33494 2.5H10.8384C11.374 2.5 11.8561 2.61477 12.2846 2.84432C12.7131 3.07387 13.0516 3.39716 13.3003 3.81417C13.549 4.22736 13.6733 4.70942 13.6733 5.26034C13.6733 5.80743 13.549 6.28949 13.3003 6.7065C13.0516 7.11969 12.7131 7.44106 12.2846 7.67061C11.8561 7.90016 11.374 8.01494 10.8384 8.01494H5.33494ZM5.33494 6.86145H10.8384C11.1445 6.86145 11.4238 6.7945 11.6763 6.66059C11.9326 6.52286 12.1373 6.33348 12.2903 6.09245C12.4433 5.85143 12.5199 5.57406 12.5199 5.26034C12.5199 4.94279 12.4433 4.66542 12.2903 4.42822C12.1373 4.18719 11.9326 3.99973 11.6763 3.86582C11.4238 3.72809 11.1445 3.65923 10.8384 3.65923H5.33494C5.02887 3.65923 4.74768 3.72809 4.49134 3.86582C4.23884 3.99973 4.03607 4.18719 3.88304 4.42822C3.73 4.66542 3.65349 4.94279 3.65349 5.26034C3.65349 5.57406 3.73 5.85143 3.88304 6.09245C4.03607 6.33348 4.23884 6.52286 4.49134 6.66059C4.74768 6.7945 5.02887 6.86145 5.33494 6.86145ZM5.33494 6.48843C5.10539 6.48843 4.89688 6.43295 4.70942 6.322C4.52578 6.21106 4.37848 6.06185 4.26753 5.87438C4.16041 5.68692 4.10685 5.48032 4.10685 5.2546C4.10685 5.02887 4.16041 4.82228 4.26753 4.63481C4.37848 4.44735 4.52578 4.29814 4.70942 4.18719C4.89688 4.07624 5.10539 4.02077 5.33494 4.02077C5.56449 4.02077 5.773 4.07624 5.96046 4.18719C6.14793 4.29431 6.29714 4.44161 6.40809 4.62908C6.51904 4.81271 6.5726 5.01931 6.56877 5.24886C6.56877 5.47841 6.5133 5.68692 6.40235 5.87438C6.2914 6.06185 6.14219 6.21297 5.95473 6.32774C5.77109 6.43869 5.56449 6.49225 5.33494 6.48843Z" fill="currentColor"></path><path d="M5.09965 13.8972C4.61377 13.8972 4.1738 13.79 3.77974 13.5758C3.38951 13.3654 3.0777 13.0727 2.84432 12.6978C2.61477 12.3228 2.5 11.8886 2.5 11.3951C2.5 10.9015 2.61477 10.4673 2.84432 10.0924C3.0777 9.71743 3.38951 9.42475 3.77974 9.21433C4.1738 9.00009 4.61377 8.89296 5.09965 8.89296H11.0737C11.5596 8.89296 11.9976 9.00009 12.3879 9.21433C12.7819 9.42475 13.0937 9.71743 13.3233 10.0924C13.5567 10.4673 13.6733 10.9015 13.6733 11.3951C13.6733 11.8886 13.5567 12.3228 13.3233 12.6978C13.0937 13.0727 12.7819 13.3654 12.3879 13.5758C11.9976 13.79 11.5596 13.8972 11.0737 13.8972H5.09965ZM11.2229 12.7666C11.4716 12.7666 11.6992 12.7035 11.9058 12.5772C12.1124 12.4548 12.2769 12.2884 12.3993 12.078C12.5256 11.8675 12.5906 11.6342 12.5945 11.3778C12.5945 11.1292 12.5332 10.9034 12.4108 10.7007C12.2884 10.4941 12.122 10.3296 11.9115 10.2071C11.7049 10.0847 11.4754 10.0235 11.2229 10.0235C10.9704 10.0235 10.7408 10.0847 10.5342 10.2071C10.3276 10.3296 10.1631 10.4941 10.0407 10.7007C9.91829 10.9073 9.85707 11.1368 9.85707 11.3893C9.85707 11.6418 9.91829 11.8714 10.0407 12.078C10.1631 12.2846 10.3276 12.4491 10.5342 12.5715C10.7408 12.6978 10.9704 12.7628 11.2229 12.7666ZM5.33494 8.01494C4.79932 8.01494 4.31727 7.90016 3.88878 7.67061C3.46028 7.44106 3.1217 7.11969 2.87302 6.7065C2.62434 6.28949 2.5 5.80743 2.5 5.26034C2.5 4.70942 2.62434 4.22736 2.87302 3.81417C3.1217 3.39716 3.46028 3.07387 3.88878 2.84432C4.31727 2.61477 4.79932 2.5 5.33494 2.5H10.8384C11.374 2.5 11.8561 2.61477 12.2846 2.84432C12.7131 3.07387 13.0516 3.39716 13.3003 3.81417C13.549 4.22736 13.6733 4.70942 13.6733 5.26034C13.6733 5.80743 13.549 6.28949 13.3003 6.7065C13.0516 7.11969 12.7131 7.44106 12.2846 7.67061C11.8561 7.90016 11.374 8.01494 10.8384 8.01494H5.33494ZM5.33494 6.86145H10.8384C11.1445 6.86145 11.4238 6.7945 11.6763 6.66059C11.9326 6.52286 12.1373 6.33348 12.2903 6.09245C12.4433 5.85143 12.5199 5.57406 12.5199 5.26034C12.5199 4.94279 12.4433 4.66542 12.2903 4.42822C12.1373 4.18719 11.9326 3.99973 11.6763 3.86582C11.4238 3.72809 11.1445 3.65923 10.8384 3.65923H5.33494C5.02887 3.65923 4.74768 3.72809 4.49134 3.86582C4.23884 3.99973 4.03607 4.18719 3.88304 4.42822C3.73 4.66542 3.65349 4.94279 3.65349 5.26034C3.65349 5.57406 3.73 5.85143 3.88304 6.09245C4.03607 6.33348 4.23884 6.52286 4.49134 6.66059C4.74768 6.7945 5.02887 6.86145 5.33494 6.86145ZM5.33494 6.48843C5.10539 6.48843 4.89688 6.43295 4.70942 6.322C4.52578 6.21106 4.37848 6.06185 4.26753 5.87438C4.16041 5.68692 4.10685 5.48032 4.10685 5.2546C4.10685 5.02887 4.16041 4.82228 4.26753 4.63481C4.37848 4.44735 4.52578 4.29814 4.70942 4.18719C4.89688 4.07624 5.10539 4.02077 5.33494 4.02077C5.56449 4.02077 5.773 4.07624 5.96046 4.18719C6.14793 4.29431 6.29714 4.44161 6.40809 4.62908C6.51904 4.81271 6.5726 5.01931 6.56877 5.24886C6.56877 5.47841 6.5133 5.68692 6.40235 5.87438C6.2914 6.06185 6.14219 6.21297 5.95473 6.32774C5.77109 6.43869 5.56449 6.49225 5.33494 6.48843Z" fill="currentColor"></path></svg>