<svg xmlns="http://www.w3.org/2000/svg" width="16" height="16" viewBox="0 0 16 16" fill="currentColor" class="size-3.5 text-white"><path fill-rule="evenodd" clip-rule="evenodd" d="M11.9497 2.05026C9.21608 -0.683418 4.78393 -0.683418 2.05026 2.05026C-0.683418 4.78393 -0.683418 9.21608 2.05026 11.9497C4.78393 14.6834 9.21608 14.6834 11.9497 11.9497C14.6834 9.21608 14.6834 4.78393 11.9497 2.05026ZM3.17804 3.17804C5.28885 1.06723 8.71116 1.06723 10.822 3.17804C12.9328 5.28885 12.9328 8.71116 10.822 10.822C10.5853 11.0586 10.3323 11.2687 10.0664 11.4522L10.0701 11.4485C8.30532 9.68373 8.30532 6.82247 10.0701 5.05769L10.3207 4.80707L9.19293 3.67929L8.94232 3.92991C7.17754 5.69469 4.31627 5.69469 2.55149 3.92991L2.54779 3.93361C2.73135 3.66773 2.94144 3.41465 3.17804 3.17804ZM3.78324 11.3445C5.18177 12.3827 6.96794 12.6587 8.57252 12.1724C7.56099 10.964 7.08953 9.4567 7.15811 7.96969L3.78324 11.3445ZM1.82764 5.42748C3.03602 6.43901 4.5433 6.91047 6.03031 6.84189L2.65546 10.2168C1.61726 8.81823 1.34132 7.03206 1.82764 5.42748Z" fill="currentColor"></path></svg>