<svg stroke="currentColor" fill="currentColor" stroke-width="0" viewBox="0 0 512 512" class="mr-2 inline-block size-5 -translate-y-0.5 fill-[#ADB2BC] text-[#ADB2BC]" height="1em" width="1em" xmlns="http://www.w3.org/2000/svg"><path d="M256 512A256 256 0 1 0 256 0a256 256 0 1 0 0 512zM175 175c9.4-9.4 24.6-9.4 33.9 0l47 47 47-47c9.4-9.4 24.6-9.4 33.9 0s9.4 24.6 0 33.9l-47 47 47 47c9.4 9.4 9.4 24.6 0 33.9s-24.6 9.4-33.9 0l-47-47-47 47c-9.4 9.4-24.6 9.4-33.9 0s-9.4-24.6 0-33.9l47-47-47-47c-9.4-9.4-9.4-24.6 0-33.9z"></path></svg>