<svg xmlns="http://www.w3.org/2000/svg" width="20" height="20" viewBox="0 0 20 20" fill="currentColor" class="size-5"><path d="M16.93 4.12C15.62 3.53 14.22 3.11 12.77 2.89C12.75 2.89 12.73 2.9 12.72 2.92C12.55 3.24 12.37 3.65 12.24 3.98C10.68 3.78 9.13 3.78 7.6 3.98C7.47 3.64 7.28 3.24 7.11 2.92C7.1 2.9 7.08 2.89 7.06 2.89C5.61 3.11 4.21 3.53 2.9 4.12C2.89 4.12 2.87 4.13 2.86 4.14C0.42 7.63 -0.25 11.04 0.08 14.41C0.08 14.43 0.09 14.45 0.11 14.46C1.92 15.76 3.68 16.53 5.41 17.03C5.43 17.04 5.45 17.03 5.46 17.01C5.85 16.49 6.2 15.94 6.5 15.36C6.51 15.34 6.5 15.31 6.48 15.31C5.94 15.11 5.43 14.87 4.94 14.59C4.92 14.58 4.92 14.55 4.93 14.53C5.04 14.45 5.15 14.37 5.25 14.28C5.26 14.27 5.28 14.27 5.29 14.28C8.36 15.68 11.68 15.68 14.71 14.28C14.72 14.27 14.74 14.27 14.75 14.28C14.85 14.37 14.96 14.45 15.07 14.54C15.08 14.56 15.08 14.58 15.06 14.59C14.57 14.88 14.06 15.11 13.52 15.31C13.5 15.32 13.49 15.35 13.5 15.36C13.81 15.94 14.15 16.49 14.54 17.01C14.55 17.03 14.57 17.04 14.59 17.03C16.32 16.53 18.08 15.76 19.89 14.46C19.91 14.45 19.92 14.43 19.92 14.41C20.32 10.54 19.31 7.16 16.95 4.14C16.94 4.13 16.93 4.12 16.93 4.12ZM6.68 12.26C5.69 12.26 4.88 11.35 4.88 10.22C4.88 9.09 5.67 8.18 6.68 8.18C7.7 8.18 8.49 9.1 8.48 10.22C8.48 11.35 7.69 12.26 6.68 12.26ZM13.32 12.26C12.33 12.26 11.52 11.35 11.52 10.22C11.52 9.09 12.31 8.18 13.32 8.18C14.34 8.18 15.13 9.1 15.12 10.22C15.12 11.35 14.34 12.26 13.32 12.26Z"></path></svg>