<svg xmlns="http://www.w3.org/2000/svg" viewBox="0 0 640 640"><defs></defs><rect width="640" height="640" fill="#492e38"/><rect x="56" y="291.06559903281595" width="5" height="57.86880193436813" rx="2" fill="#f5eee0" opacity=".8"/><rect x="68" y="297.46896816748557" width="5" height="45.062063665028866" rx="2" fill="#f5eee0" opacity=".8"/><rect x="80" y="271.33892593395007" width="5" height="97.32214813209985" rx="2" fill="#f5eee0" opacity=".8"/><rect x="92" y="248.81610673091578" width="5" height="142.36778653816845" rx="2" fill="#f5eee0" opacity=".8"/><rect x="104" y="231.7678372936495" width="5" height="176.464325412701" rx="2" fill="#f5eee0" opacity=".8"/><rect x="116" y="221.4533779484628" width="5" height="197.09324410307443" rx="2" fill="#f5eee0" opacity=".8"/><rect x="128" y="218.38971064028624" width="5" height="203.2205787194275" rx="2" fill="#f5eee0" opacity=".8"/><rect x="140" y="222.30189841143863" width="5" height="195.39620317712274" rx="2" fill="#f5eee0" opacity=".8"/><rect x="152" y="232.16356236614337" width="5" height="175.67287526771324" rx="2" fill="#f5eee0" opacity=".8"/><rect x="164" y="246.32271245230402" width="5" height="147.35457509539194" rx="2" fill="#f5eee0" opacity=".8"/><rect x="176" y="262.69840594621434" width="5" height="114.60318810757131" rx="2" fill="#f5eee0" opacity=".8"/><rect x="188" y="279.0256099056809" width="5" height="81.94878018863828" rx="2" fill="#f5eee0" opacity=".8"/><rect x="200" y="293.12013799916247" width="5" height="53.75972400167505" rx="2" fill="#f5eee0" opacity=".8"/><rect x="212" y="303.13324820468324" width="5" height="33.733503590633575" rx="2" fill="#f5eee0" opacity=".8"/><rect x="224" y="307.76668718195424" width="5" height="24.466625636091496" rx="2" fill="#f5eee0" opacity=".8"/><rect x="236" y="306.42351212055473" width="5" height="27.15297575889053" rx="2" fill="#f5eee0" opacity=".8"/><rect x="248" y="299.27739095865365" width="5" height="41.44521808269272" rx="2" fill="#f5eee0" opacity=".8"/><rect x="260" y="287.2524329963288" width="5" height="65.49513400734232" rx="2" fill="#f5eee0" opacity=".8"/><rect x="272" y="271.91586322392374" width="5" height="96.16827355215253" rx="2" fill="#f5eee0" opacity=".8"/><rect x="284" y="255.2958500694917" width="5" height="129.4082998610166" rx="2" fill="#f5eee0" opacity=".8"/><rect x="296" y="239.64538299152508" width="5" height="160.70923401694984" rx="2" fill="#f5eee0" opacity=".8"/><rect x="308" y="227.1792900527732" width="5" height="185.64141989445358" rx="2" fill="#f5eee0" opacity=".8"/><rect x="320" y="219.81457694270506" width="5" height="200.3708461145899" rx="2" fill="#f5eee0" opacity=".8"/><rect x="332" y="218.9439037097231" width="5" height="202.11219258055385" rx="2" fill="#f5eee0" opacity=".8"/><rect x="344" y="225.2682353155841" width="5" height="189.4635293688318" rx="2" fill="#f5eee0" opacity=".8"/><rect x="356" y="238.70793962675873" width="5" height="162.5841207464825" rx="2" fill="#f5eee0" opacity=".8"/><rect x="368" y="258.4026356758851" width="5" height="123.19472864822981" rx="2" fill="#f5eee0" opacity=".8"/><rect x="380" y="282.79994287767187" width="5" height="74.40011424465624" rx="2" fill="#f5eee0" opacity=".8"/><rect x="392" y="306.17688943453254" width="5" height="27.646221130934922" rx="2" fill="#f5eee0" opacity=".8"/><rect x="404" y="278.901518852594" width="5" height="82.19696229481195" rx="2" fill="#f5eee0" opacity=".8"/><rect x="416" y="253.78310730676387" width="5" height="132.43378538647227" rx="2" fill="#f5eee0" opacity=".8"/><rect x="428" y="233.00075821367352" width="5" height="173.998483572653" rx="2" fill="#f5eee0" opacity=".8"/><rect x="440" y="218.26405020758278" width="5" height="203.47189958483446" rx="2" fill="#f5eee0" opacity=".8"/><rect x="452" y="210.62693998261773" width="5" height="218.74612003476454" rx="2" fill="#f5eee0" opacity=".8"/><rect x="464" y="210.37620207599485" width="5" height="219.24759584801026" rx="2" fill="#f5eee0" opacity=".8"/><rect x="476" y="217.00704719833226" width="5" height="205.98590560333548" rx="2" fill="#f5eee0" opacity=".8"/><rect x="488" y="229.2885890314085" width="5" height="181.42282193718304" rx="2" fill="#f5eee0" opacity=".8"/><rect x="500" y="245.41155379529351" width="5" height="149.176892409413" rx="2" fill="#f5eee0" opacity=".8"/><rect x="512" y="263.20122363708697" width="5" height="113.59755272582605" rx="2" fill="#f5eee0" opacity=".8"/><rect x="524" y="280.37115041309215" width="5" height="79.25769917381567" rx="2" fill="#f5eee0" opacity=".8"/><rect x="536" y="294.7885239895816" width="5" height="50.42295202083678" rx="2" fill="#f5eee0" opacity=".8"/><rect x="548" y="304.72076121485713" width="5" height="30.55847757028576" rx="2" fill="#f5eee0" opacity=".8"/><rect x="560" y="306.9649511227018" width="5" height="26.070097754596432" rx="2" fill="#f5eee0" opacity=".8"/><rect x="572" y="307.3279778947028" width="5" height="25.344044210594337" rx="2" fill="#f5eee0" opacity=".8"/><text x="48" y="70" fill="#faf8f4" font-family="Arial,sans-serif" font-size="17" >RALPHY / ORIGINAL SOUND</text><text x="48" y="576" fill="#faf8f4" font-family="Arial,sans-serif" font-size="36" >IMPACT</text></svg>
