<svg xmlns="http://www.w3.org/2000/svg" viewBox="0 0 640 640"><defs></defs><rect width="640" height="640" fill="#6c8370"/><rect x="56" y="274.4701402161289" width="5" height="91.0597195677422" rx="2" fill="#f5eee0" opacity=".8"/><rect x="68" y="301.6593270255155" width="5" height="36.681345948969025" rx="2" fill="#f5eee0" opacity=".8"/><rect x="80" y="287.40136254133097" width="5" height="65.19727491733808" rx="2" fill="#f5eee0" opacity=".8"/><rect x="92" y="263.0797148014771" width="5" height="113.84057039704574" rx="2" fill="#f5eee0" opacity=".8"/><rect x="104" y="243.4400885207853" width="5" height="153.11982295842935" rx="2" fill="#f5eee0" opacity=".8"/><rect x="116" y="230.01742415657728" width="5" height="179.96515168684545" rx="2" fill="#f5eee0" opacity=".8"/><rect x="128" y="223.65177120686846" width="5" height="192.69645758626308" rx="2" fill="#f5eee0" opacity=".8"/><rect x="140" y="224.4021311205108" width="5" height="191.1957377589784" rx="2" fill="#f5eee0" opacity=".8"/><rect x="152" y="231.54933582552957" width="5" height="176.90132834894086" rx="2" fill="#f5eee0" opacity=".8"/><rect x="164" y="243.6874937529388" width="5" height="152.62501249412242" rx="2" fill="#f5eee0" opacity=".8"/><rect x="176" y="258.8934026418493" width="5" height="122.2131947163013" rx="2" fill="#f5eee0" opacity=".8"/><rect x="188" y="274.9544113871733" width="5" height="90.0911772256534" rx="2" fill="#f5eee0" opacity=".8"/><rect x="200" y="289.6285325139483" width="5" height="60.74293497210344" rx="2" fill="#f5eee0" opacity=".8"/><rect x="212" y="300.90692724648096" width="5" height="38.186145507038056" rx="2" fill="#f5eee0" opacity=".8"/><rect x="224" y="307.2486276840077" width="5" height="25.50274463198457" rx="2" fill="#f5eee0" opacity=".8"/><rect x="236" y="307.76055456976303" width="5" height="24.478890860473882" rx="2" fill="#f5eee0" opacity=".8"/><rect x="248" y="302.3021686456265" width="5" height="35.39566270874694" rx="2" fill="#f5eee0" opacity=".8"/><rect x="260" y="291.502739439808" width="5" height="56.994521120383965" rx="2" fill="#f5eee0" opacity=".8"/><rect x="272" y="276.6892374245724" width="5" height="86.62152515085523" rx="2" fill="#f5eee0" opacity=".8"/><rect x="284" y="259.7331061159081" width="5" height="120.5337877681838" rx="2" fill="#f5eee0" opacity=".8"/><rect x="296" y="242.83347600861083" width="5" height="154.33304798277837" rx="2" fill="#f5eee0" opacity=".8"/><rect x="308" y="228.26167661951712" width="5" height="183.47664676096574" rx="2" fill="#f5eee0" opacity=".8"/><rect x="320" y="218.09635095762985" width="5" height="203.8072980847403" rx="2" fill="#f5eee0" opacity=".8"/><rect x="332" y="213.9795689477732" width="5" height="212.04086210445357" rx="2" fill="#f5eee0" opacity=".8"/><rect x="344" y="216.92194742253022" width="5" height="206.15610515493955" rx="2" fill="#f5eee0" opacity=".8"/><rect x="356" y="227.17918755401362" width="5" height="185.64162489197275" rx="2" fill="#f5eee0" opacity=".8"/><rect x="368" y="244.2142765952729" width="5" height="151.5714468094542" rx="2" fill="#f5eee0" opacity=".8"/><rect x="380" y="266.74980406123393" width="5" height="106.5003918775322" rx="2" fill="#f5eee0" opacity=".8"/><rect x="392" y="292.90453447774695" width="5" height="54.190931044506115" rx="2" fill="#f5eee0" opacity=".8"/><rect x="404" y="295.60126039864474" width="5" height="48.79747920271055" rx="2" fill="#f5eee0" opacity=".8"/><rect x="416" y="269.1950739427132" width="5" height="101.60985211457368" rx="2" fill="#f5eee0" opacity=".8"/><rect x="428" y="246.1845997252627" width="5" height="147.6308005494746" rx="2" fill="#f5eee0" opacity=".8"/><rect x="440" y="228.5038139580862" width="5" height="182.99237208382758" rx="2" fill="#f5eee0" opacity=".8"/><rect x="452" y="217.5016284853683" width="5" height="204.99674302926343" rx="2" fill="#f5eee0" opacity=".8"/><rect x="464" y="213.79716667274954" width="5" height="212.40566665450092" rx="2" fill="#f5eee0" opacity=".8"/><rect x="476" y="217.21809204469815" width="5" height="205.56381591060367" rx="2" fill="#f5eee0" opacity=".8"/><rect x="488" y="226.82891796507232" width="5" height="186.34216406985536" rx="2" fill="#f5eee0" opacity=".8"/><rect x="500" y="241.0459337806017" width="5" height="157.9081324387966" rx="2" fill="#f5eee0" opacity=".8"/><rect x="512" y="257.8254769595368" width="5" height="124.34904608092646" rx="2" fill="#f5eee0" opacity=".8"/><rect x="524" y="274.90389583297184" width="5" height="90.19220833405632" rx="2" fill="#f5eee0" opacity=".8"/><rect x="536" y="290.06164340009866" width="5" height="59.876713199802715" rx="2" fill="#f5eee0" opacity=".8"/><rect x="548" y="301.3811950599746" width="5" height="37.23760988005085" rx="2" fill="#f5eee0" opacity=".8"/><rect x="560" y="307.4692064373233" width="5" height="25.061587125353444" rx="2" fill="#f5eee0" opacity=".8"/><rect x="572" y="307.61743863373516" width="5" height="24.76512273252964" rx="2" fill="#f5eee0" opacity=".8"/><text x="48" y="70" fill="#faf8f4" font-family="Arial,sans-serif" font-size="17" >RALPHY / ORIGINAL SOUND</text><text x="48" y="576" fill="#faf8f4" font-family="Arial,sans-serif" font-size="36" >RISER</text></svg>
