<svg xmlns="http://www.w3.org/2000/svg" viewBox="0 0 640 640"><defs></defs><rect width="640" height="640" fill="#233b48"/><rect x="56" y="308.0" width="5" height="24.0" rx="2" fill="#f5eee0" opacity=".8"/><rect x="68" y="280.808042034216" width="5" height="78.38391593156805" rx="2" fill="#f5eee0" opacity=".8"/><rect x="80" y="256.0102609732638" width="5" height="127.97947805347238" rx="2" fill="#f5eee0" opacity=".8"/><rect x="92" y="235.73706468653282" width="5" height="168.52587062693436" rx="2" fill="#f5eee0" opacity=".8"/><rect x="104" y="221.62137332139207" width="5" height="196.7572533572159" rx="2" fill="#f5eee0" opacity=".8"/><rect x="116" y="214.62156296914975" width="5" height="210.75687406170047" rx="2" fill="#f5eee0" opacity=".8"/><rect x="128" y="214.92120062450883" width="5" height="210.15759875098234" rx="2" fill="#f5eee0" opacity=".8"/><rect x="140" y="221.91691378833224" width="5" height="196.1661724233355" rx="2" fill="#f5eee0" opacity=".8"/><rect x="152" y="234.29565572161906" width="5" height="171.4086885567619" rx="2" fill="#f5eee0" opacity=".8"/><rect x="164" y="250.19240248128702" width="5" height="139.61519503742596" rx="2" fill="#f5eee0" opacity=".8"/><rect x="176" y="267.41012096357633" width="5" height="105.17975807284738" rx="2" fill="#f5eee0" opacity=".8"/><rect x="188" y="283.6767310389263" width="5" height="72.64653792214744" rx="2" fill="#f5eee0" opacity=".8"/><rect x="200" y="296.90956402349326" width="5" height="46.1808719530135" rx="2" fill="#f5eee0" opacity=".8"/><rect x="212" y="305.4569772331583" width="5" height="29.08604553368341" rx="2" fill="#f5eee0" opacity=".8"/><rect x="224" y="307.7105835624597" width="5" height="24.578832875080586" rx="2" fill="#f5eee0" opacity=".8"/><rect x="236" y="305.11802308697224" width="5" height="29.76395382605554" rx="2" fill="#f5eee0" opacity=".8"/><rect x="248" y="296.42719635094926" width="5" height="47.14560729810148" rx="2" fill="#f5eee0" opacity=".8"/><rect x="260" y="283.41738924749313" width="5" height="73.16522150501378" rx="2" fill="#f5eee0" opacity=".8"/><rect x="272" y="267.86471326618823" width="5" height="104.2705734676235" rx="2" fill="#f5eee0" opacity=".8"/><rect x="284" y="251.91346794227564" width="5" height="136.1730641154487" rx="2" fill="#f5eee0" opacity=".8"/><rect x="296" y="237.82540809861445" width="5" height="164.34918380277114" rx="2" fill="#f5eee0" opacity=".8"/><rect x="308" y="227.71453054513185" width="5" height="184.5709389097363" rx="2" fill="#f5eee0" opacity=".8"/><rect x="320" y="223.29783476985432" width="5" height="193.4043304602914" rx="2" fill="#f5eee0" opacity=".8"/><rect x="332" y="225.69069684442502" width="5" height="188.61860631115" rx="2" fill="#f5eee0" opacity=".8"/><rect x="344" y="235.2704000412989" width="5" height="169.45919991740217" rx="2" fill="#f5eee0" opacity=".8"/><rect x="356" y="251.62357275899853" width="5" height="136.75285448200293" rx="2" fill="#f5eee0" opacity=".8"/><rect x="368" y="273.5836863406623" width="5" height="92.83262731867535" rx="2" fill="#f5eee0" opacity=".8"/><rect x="380" y="299.3544610087511" width="5" height="41.29107798249781" rx="2" fill="#f5eee0" opacity=".8"/><rect x="392" y="289.2948029171755" width="5" height="61.41039416564902" rx="2" fill="#f5eee0" opacity=".8"/><rect x="404" y="262.7841836045524" width="5" height="114.4316327908952" rx="2" fill="#f5eee0" opacity=".8"/><rect x="416" y="239.45629214669623" width="5" height="161.08741570660752" rx="2" fill="#f5eee0" opacity=".8"/><rect x="428" y="221.3180270363656" width="5" height="197.36394592726882" rx="2" fill="#f5eee0" opacity=".8"/><rect x="440" y="209.820352102299" width="5" height="220.35929579540195" rx="2" fill="#f5eee0" opacity=".8"/><rect x="452" y="205.7011739381651" width="5" height="228.59765212366977" rx="2" fill="#f5eee0" opacity=".8"/><rect x="464" y="208.909178458444" width="5" height="222.181643083112" rx="2" fill="#f5eee0" opacity=".8"/><rect x="476" y="218.6172269209627" width="5" height="202.76554615807456" rx="2" fill="#f5eee0" opacity=".8"/><rect x="488" y="233.32366952344847" width="5" height="173.35266095310308" rx="2" fill="#f5eee0" opacity=".8"/><rect x="500" y="251.02988198631817" width="5" height="137.94023602736365" rx="2" fill="#f5eee0" opacity=".8"/><rect x="512" y="269.47361812813267" width="5" height="101.05276374373472" rx="2" fill="#f5eee0" opacity=".8"/><rect x="524" y="286.391396605546" width="5" height="67.21720678890799" rx="2" fill="#f5eee0" opacity=".8"/><rect x="536" y="299.77983236123936" width="5" height="40.440335277521264" rx="2" fill="#f5eee0" opacity=".8"/><rect x="548" y="307.8740386436798" width="5" height="24.2519227126404" rx="2" fill="#f5eee0" opacity=".8"/><rect x="560" y="305.4198251930434" width="5" height="29.160349613913244" rx="2" fill="#f5eee0" opacity=".8"/><rect x="572" y="307.0519676826772" width="5" height="25.896064634645683" rx="2" fill="#f5eee0" opacity=".8"/><text x="48" y="70" fill="#faf8f4" font-family="Arial,sans-serif" font-size="17" >RALPHY / ORIGINAL SOUND</text><text x="48" y="576" fill="#faf8f4" font-family="Arial,sans-serif" font-size="36" >PULSE</text></svg>
