<svg xmlns="http://www.w3.org/2000/svg" viewBox="0.105 2.816 18.367 18.367" width="24" height="24" fill="none">
  <path d="M18.4725 9.60528V3.91396C18.4725 3.30323 17.977 2.81641 17.3754 2.81641H11.6867C10.7931 2.81641 9.90842 2.99342 9.08564 3.32977C8.26285 3.67497 7.51085 4.17064 6.88271 4.80793L6.83847 4.85219C6.00684 5.69305 5.41408 6.73749 5.11328 7.88815C5.65296 7.74653 6.2103 7.67572 6.76767 7.66687C8.25399 7.64916 9.71378 8.12713 10.8993 9.02111C11.9698 9.81771 12.7837 10.9153 13.2261 12.181C13.6861 13.4644 13.7392 14.8629 13.3942 16.1817C14.5354 15.8808 15.5883 15.2878 16.4288 14.4558L16.473 14.4115C17.1011 13.7831 17.6054 13.0307 17.9504 12.2075C18.2955 11.3844 18.4636 10.4993 18.4636 9.60528H18.4725Z" fill="#18E299"></path>
  <path d="M4.9434 9.50941C4.95221 7.76347 5.64849 6.08807 6.87361 4.83594L2.14058 9.57113C2.12296 9.58876 2.10532 9.59758 2.08769 9.61522C0.933084 10.7615 0.23681 12.2959 0.122231 13.9183C0.0164654 15.435 0.413078 16.934 1.2592 18.1862C1.33991 18.3056 1.5589 18.3449 1.68229 18.2303L4.58202 15.338C5.48985 14.4298 5.7719 13.0806 5.34002 11.8726C5.06679 11.1231 4.93459 10.3207 4.9434 9.50941Z" fill="#0C8C5E"></path>
  <path d="M16.4445 14.4121C15.5367 15.3027 14.3997 15.92 13.1658 16.1933C11.923 16.4667 10.6362 16.3873 9.43757 15.9641C9.43757 15.9641 9.42874 15.9641 9.41992 15.9641C8.21243 15.532 6.86394 15.8141 5.95612 16.7136L3.05634 19.6058C2.93295 19.7293 2.95057 19.9321 3.10041 20.0291C4.35197 20.8668 5.85035 21.2724 7.36632 21.1666C8.98806 21.052 10.5128 20.3553 11.6674 19.2002L11.7115 19.1561L16.4445 14.4209V14.4121Z" fill="#0C8C5E"></path>
</svg>