<svg xmlns="http://www.w3.org/2000/svg" width="16" height="16" viewBox="0 0 16 16" fill="currentColor" class="size-4 shrink-0"><path d="M7.74918 11.7788C7.67266 11.7788 7.59614 11.7578 7.51963 11.7157C7.44694 11.6736 7.3532 11.5952 7.23843 11.4804L5.82096 10.1203C5.7674 10.0668 5.73296 10.0094 5.71766 9.94816C5.70618 9.88312 5.71766 9.82191 5.75209 9.76452C5.96251 9.48524 6.24371 9.25186 6.59569 9.0644C6.95149 8.87311 7.33599 8.77746 7.74918 8.77746C8.15089 8.77746 8.52582 8.86737 8.87397 9.04718C9.22212 9.22699 9.50141 9.44889 9.71183 9.71288C9.76539 9.77791 9.78643 9.84869 9.77495 9.92521C9.7673 10.0017 9.73478 10.0668 9.67739 10.1203L8.25992 11.4804C8.14515 11.5952 8.0495 11.6736 7.97299 11.7157C7.9003 11.7578 7.82569 11.7788 7.74918 11.7788ZM4.31167 8.56513L3.39921 7.67562C3.34182 7.61823 3.31121 7.55511 3.30739 7.48624C3.30356 7.41355 3.32652 7.3466 3.37625 7.28539C3.68232 6.92193 4.06107 6.60056 4.51252 6.32128C4.96397 6.03816 5.46516 5.81627 6.01607 5.65558C6.57082 5.4949 7.14852 5.41455 7.74918 5.41455C8.34983 5.41455 8.92562 5.4949 9.47654 5.65558C10.0275 5.81627 10.5286 6.03816 10.9801 6.32128C11.4354 6.60056 11.8141 6.92193 12.1164 7.28539C12.1699 7.3466 12.1929 7.41355 12.1852 7.48624C12.1814 7.55893 12.1508 7.62206 12.0934 7.67562L11.1809 8.56513C11.1083 8.63399 11.0298 8.66842 10.9457 8.66842C10.8653 8.66842 10.7926 8.63399 10.7276 8.56513C10.3641 8.17872 9.91842 7.86309 9.39046 7.61823C8.86632 7.37338 8.31922 7.25287 7.74918 7.25669C7.18678 7.25287 6.6416 7.37147 6.11363 7.61249C5.58949 7.8497 5.14952 8.15959 4.79372 8.54217C4.72486 8.61869 4.64451 8.66077 4.55269 8.66842C4.4647 8.67225 4.38436 8.63782 4.31167 8.56513ZM1.90139 6.18355L1.09223 5.35717C1.03484 5.29595 1.00424 5.229 1.00041 5.15631C0.996584 5.07979 1.01954 5.01284 1.06927 4.95545C1.5322 4.37775 2.11564 3.86701 2.81959 3.42321C3.52355 2.97559 4.29636 2.62744 5.13805 2.37876C5.98355 2.12625 6.85393 2 7.74918 2C8.64059 2 9.50906 2.12625 10.3546 2.37876C11.2001 2.63126 11.9729 2.97941 12.673 3.42321C13.377 3.86701 13.9604 4.37775 14.4233 4.95545C14.4769 5.01284 14.5018 5.07979 14.4979 5.15631C14.4979 5.229 14.4673 5.29595 14.4061 5.35717L13.5912 6.17207C13.5262 6.23711 13.4497 6.27154 13.3617 6.27537C13.2737 6.27919 13.1972 6.24859 13.1321 6.18355C12.4282 5.42603 11.6171 4.85216 10.6989 4.46192C9.78452 4.06786 8.80128 3.87083 7.74918 3.87083C6.70472 3.87083 5.72531 4.06786 4.81094 4.46192C3.89656 4.85216 3.08357 5.42412 2.37197 6.17781C2.30693 6.24667 2.2285 6.28302 2.13668 6.28684C2.04869 6.28684 1.97026 6.25241 1.90139 6.18355Z" fill="currentColor"></path><path d="M7.74918 11.7788C7.67266 11.7788 7.59614 11.7578 7.51963 11.7157C7.44694 11.6736 7.3532 11.5952 7.23843 11.4804L5.82096 10.1203C5.7674 10.0668 5.73296 10.0094 5.71766 9.94816C5.70618 9.88312 5.71766 9.82191 5.75209 9.76452C5.96251 9.48524 6.24371 9.25186 6.59569 9.0644C6.95149 8.87311 7.33599 8.77746 7.74918 8.77746C8.15089 8.77746 8.52582 8.86737 8.87397 9.04718C9.22212 9.22699 9.50141 9.44889 9.71183 9.71288C9.76539 9.77791 9.78643 9.84869 9.77495 9.92521C9.7673 10.0017 9.73478 10.0668 9.67739 10.1203L8.25992 11.4804C8.14515 11.5952 8.0495 11.6736 7.97299 11.7157C7.9003 11.7578 7.82569 11.7788 7.74918 11.7788ZM4.31167 8.56513L3.39921 7.67562C3.34182 7.61823 3.31121 7.55511 3.30739 7.48624C3.30356 7.41355 3.32652 7.3466 3.37625 7.28539C3.68232 6.92193 4.06107 6.60056 4.51252 6.32128C4.96397 6.03816 5.46516 5.81627 6.01607 5.65558C6.57082 5.4949 7.14852 5.41455 7.74918 5.41455C8.34983 5.41455 8.92562 5.4949 9.47654 5.65558C10.0275 5.81627 10.5286 6.03816 10.9801 6.32128C11.4354 6.60056 11.8141 6.92193 12.1164 7.28539C12.1699 7.3466 12.1929 7.41355 12.1852 7.48624C12.1814 7.55893 12.1508 7.62206 12.0934 7.67562L11.1809 8.56513C11.1083 8.63399 11.0298 8.66842 10.9457 8.66842C10.8653 8.66842 10.7926 8.63399 10.7276 8.56513C10.3641 8.17872 9.91842 7.86309 9.39046 7.61823C8.86632 7.37338 8.31922 7.25287 7.74918 7.25669C7.18678 7.25287 6.6416 7.37147 6.11363 7.61249C5.58949 7.8497 5.14952 8.15959 4.79372 8.54217C4.72486 8.61869 4.64451 8.66077 4.55269 8.66842C4.4647 8.67225 4.38436 8.63782 4.31167 8.56513ZM1.90139 6.18355L1.09223 5.35717C1.03484 5.29595 1.00424 5.229 1.00041 5.15631C0.996584 5.07979 1.01954 5.01284 1.06927 4.95545C1.5322 4.37775 2.11564 3.86701 2.81959 3.42321C3.52355 2.97559 4.29636 2.62744 5.13805 2.37876C5.98355 2.12625 6.85393 2 7.74918 2C8.64059 2 9.50906 2.12625 10.3546 2.37876C11.2001 2.63126 11.9729 2.97941 12.673 3.42321C13.377 3.86701 13.9604 4.37775 14.4233 4.95545C14.4769 5.01284 14.5018 5.07979 14.4979 5.15631C14.4979 5.229 14.4673 5.29595 14.4061 5.35717L13.5912 6.17207C13.5262 6.23711 13.4497 6.27154 13.3617 6.27537C13.2737 6.27919 13.1972 6.24859 13.1321 6.18355C12.4282 5.42603 11.6171 4.85216 10.6989 4.46192C9.78452 4.06786 8.80128 3.87083 7.74918 3.87083C6.70472 3.87083 5.72531 4.06786 4.81094 4.46192C3.89656 4.85216 3.08357 5.42412 2.37197 6.17781C2.30693 6.24667 2.2285 6.28302 2.13668 6.28684C2.04869 6.28684 1.97026 6.25241 1.90139 6.18355Z" fill="currentColor"></path></svg>