<svg width="48" height="39" viewBox="0 0 48 39" fill="none" xmlns="http://www.w3.org/2000/svg"><path d="M2.13765 0.0981147C2.20729 0.888577 2.4264 1.658 2.4213 2.45898C2.23782 9.49665 5.19834 15.2915 9.44295 20.4483C10.9037 22.2243 12.9742 23.7239 15.0906 24.7217C21.0881 27.6502 27.4899 29.0737 34.1906 28.7783C36.1218 28.697 38.0768 28.2313 39.9911 27.4664C39.3949 27.2836 38.7563 27.0686 38.1278 26.9284C36.3172 26.4974 34.4743 26.1089 32.6857 25.5604C31.9299 25.3238 31.208 24.7776 30.5608 24.2209C30.3061 24.0281 30.2143 23.3551 30.3655 23.067C30.5167 22.779 31.1265 22.5026 31.371 22.6206C35.8195 24.2428 40.5754 24.488 45.2328 25.1281C46.8634 25.3559 47.4562 26.0727 47.0944 27.6098C46.1636 31.3992 44.4242 34.8451 41.9834 37.8943C41.9189 37.9796 41.6522 37.979 41.2038 38.0421C39.4085 35.2081 42.2382 33.0568 42.6527 29.9499C41.9682 30.2368 41.4331 30.5026 40.9202 30.651C30.5676 33.2134 20.8299 31.3449 11.6238 26.391C10.231 25.6725 8.93677 24.559 7.82423 23.3818C3.76645 19.0371 1.08958 13.9264 0.135035 8.03968C-0.162198 6.13802 0.0959898 4.12007 0.289633 2.18742C0.337197 1.41857 0.885828 0.693507 1.21025 7.80775e-06C1.51939 0.0327102 1.82852 0.0654123 2.13765 0.0981147Z" fill="#7D8390"></path></svg>