<svg width="67" height="17" viewBox="0 0 67 17" fill="none" xmlns="http://www.w3.org/2000/svg"><path d="M59.5524 11.9317C54.4705 12.7099 49.7366 13.4015 45.0028 14.1797C44.6547 14.2661 44.3763 14.7849 43.6105 15.5631C45.8382 15.9089 47.5786 16.3412 49.3189 16.4277C53.9135 16.6006 58.4385 16.6006 63.0331 16.6006C63.5901 16.6006 64.147 16.6871 64.7039 16.5142C66.5139 16.0818 67.1404 14.612 66.1658 12.6234C65.6785 11.6723 65.1216 10.8077 64.4951 10.0295C62.1281 7.08985 59.6916 4.23662 57.2551 1.38339C56.8374 0.864621 56.2108 0.605231 55.3755 0C55.2362 4.40954 58.7866 5.62 59.5524 9.07846C58.9258 8.90554 58.3689 8.81908 57.8816 8.64615C39.0855 2.248 25.7971 2.9397 7.14019 9.16493C5.19097 9.77016 3.31136 10.7212 1.43175 11.5858C0.457138 12.0181 -0.37825 12.9692 0.178673 14.4391C0.665977 15.9089 1.64059 15.9089 2.75443 15.3037C15.2155 8.38678 23.0044 7.60862 36.3705 7.868C43.332 7.95446 50.1543 8.90554 56.907 10.8942C57.7424 11.1535 58.5778 11.4994 59.5524 11.9317Z" fill="#7D8390"></path></svg>