<svg xmlns="http://www.w3.org/2000/svg" width="65" height="71" viewBox="0 0 65 71" fill="currentColor"><g filter="url(#filter0_d_1858_498)"><path d="M14.4338 51.4001L12.7111 16.0742C12.4967 11.6773 17.4181 8.94725 21.0303 11.4592L50.0522 31.6411C53.709 34.0196 52.6998 39.6302 48.4437 40.5831L34.9796 42.7236C33.7505 42.919 32.6292 43.541 31.8123 44.4806L22.8635 54.7735C19.8006 57.8807 14.5115 55.7641 14.4338 51.4001Z" fill="url(#paint0_radial_1858_498)"></path><path d="M13.4602 16.0381C13.2761 12.2618 17.5016 9.91943 20.6018 12.0752L49.6243 32.2568L49.6331 32.2637L49.6428 32.2695C52.7402 34.2841 51.889 39.0324 48.2913 39.8477L34.8616 41.9824C33.4585 42.2055 32.1787 42.9159 31.2463 43.9883L22.3157 54.2598C19.7181 56.8736 15.2496 55.0814 15.1838 51.3867V51.375L15.1829 51.3633L13.4602 16.0381Z" stroke="#86DAE0" stroke-width="3" style="mix-blend-mode:overlay"></path></g><defs><filter id="filter0_d_1858_498" x="0.704346" y="0.5" width="63.5913" height="69.75" filterUnits="userSpaceOnUse" color-interpolation-filters="sRGB"><feFlood flood-opacity="0" result="BackgroundImageFix"></feFlood><feColorMatrix in="SourceAlpha" type="matrix" values="0 0 0 0 0 0 0 0 0 0 0 0 0 0 0 0 0 0 127 0" result="hardAlpha"></feColorMatrix><feOffset dy="2"></feOffset><feGaussianBlur stdDeviation="6"></feGaussianBlur><feComposite in2="hardAlpha" operator="out"></feComposite><feColorMatrix type="matrix" values="0 0 0 0 0.387565 0 0 0 0 0.762108 0 0 0 0 0.935677 0 0 0 0.4 0"></feColorMatrix><feBlend mode="normal" in2="BackgroundImageFix" result="effect1_dropShadow_1858_498"></feBlend><feBlend mode="normal" in="SourceGraphic" in2="effect1_dropShadow_1858_498" result="shape"></feBlend></filter><radialGradient id="paint0_radial_1858_498" cx="0" cy="0" r="1" gradientTransform="matrix(-27.8401 -50.2639 43.2928 -24.0162 36.3902 48.4919)" gradientUnits="userSpaceOnUse"><stop offset="0.198365" stop-color="#1838C6"></stop><stop offset="0.633521" stop-color="#4D95FA"></stop><stop offset="1" stop-color="white"></stop></radialGradient></defs></svg>