<?xml version="1.0" encoding="UTF-8" ?>
<svg width="79" height="79" viewBox="0 0 79 79" xmlns="http://www.w3.org/2000/svg">
    <path
    id="Path"
    fill="#ffffff"
    fill-rule="evenodd"
    stroke="none"
    d="M 67.430702 11.569298 C 52.005001 -3.85643 26.995001 -3.85643 11.5693 11.569298 C -3.85643 26.995003 -3.85643 52.005001 11.5693 67.430702 C 26.995001 82.8564 52.005001 82.8564 67.430702 67.430702 C 82.8564 52.005001 82.8564 26.995003 67.430702 11.569298 Z M 17.933201 17.933201 C 29.8442 6.022247 49.1558 6.022247 61.066799 17.933201 C 72.977699 29.8442 72.977699 49.1558 61.066799 61.066799 C 59.731602 62.401901 58.303501 63.587399 56.8032 64.623199 L 56.8241 64.602303 C 46.8657 54.643902 46.8657 38.498199 56.8241 28.539803 L 58.2383 27.125603 L 51.874401 20.7617 L 50.460201 22.1759 C 40.501801 32.1343 24.3561 32.1343 14.3977 22.1759 L 14.3768 22.1968 C 15.4126 20.696503 16.598101 19.268402 17.933201 17.933201 Z M 34.028198 38.6078 C 25.637199 38.994801 17.1318 36.3344 10.3131 30.626499 C 7.56889 39.680901 9.12599 49.759998 14.9844 57.651699 L 34.028198 38.6078 Z M 21.348301 64.015602 C 29.24 69.874001 39.319099 71.431099 48.373501 68.686897 C 42.6656 61.868198 40.005199 53.362801 40.3922 44.971802 L 21.348301 64.015602 Z"
  />
</svg>
